<svg width="23" height="23" viewBox="0 0 23 23" fill="none" xmlns="http://www.w3.org/2000/svg">
<path d="M14.7093 23H8.2907C2.48186 23 0 20.5181 0 14.7093V8.2907C0 2.48186 2.48186 0 8.2907 0H14.7093C20.5181 0 23 2.48186 23 8.2907V14.7093C23 20.5181 20.5181 23 14.7093 23ZM8.2907 1.60465C3.35907 1.60465 1.60465 3.35907 1.60465 8.2907V14.7093C1.60465 19.6409 3.35907 21.3953 8.2907 21.3953H14.7093C19.6409 21.3953 21.3953 19.6409 21.3953 14.7093V8.2907C21.3953 3.35907 19.6409 1.60465 14.7093 1.60465H8.2907Z" fill="#577456"/>
<path d="M13.5543 15.9178H8.29104C7.85243 15.9178 7.48871 15.5541 7.48871 15.1155C7.48871 14.6769 7.85243 14.3132 8.29104 14.3132H13.5543C14.9236 14.3132 16.0469 13.2006 16.0469 11.8206C16.0469 10.4406 14.9343 9.3281 13.5543 9.3281H6.31197C5.87336 9.3281 5.50964 8.96438 5.50964 8.52578C5.50964 8.08717 5.87336 7.72345 6.31197 7.72345H13.5543C15.8115 7.72345 17.6515 9.56342 17.6515 11.8206C17.6515 14.0778 15.8115 15.9178 13.5543 15.9178Z" fill="#577456"/>
<path d="M7.83014 10.9863C7.62688 10.9863 7.42363 10.9114 7.26316 10.7509L5.58363 9.07144C5.27339 8.76121 5.27339 8.24771 5.58363 7.93748L7.26316 6.25794C7.57339 5.94771 8.08688 5.94771 8.39711 6.25794C8.70735 6.56818 8.70735 7.08167 8.39711 7.39191L7.28456 8.50445L8.39711 9.61699C8.70735 9.92722 8.70735 10.4407 8.39711 10.7509C8.24735 10.9007 8.04409 10.9863 7.83014 10.9863Z" fill="#577456"/>
</svg>
