<svg xmlns="http://www.w3.org/2000/svg" width="23" height="21" viewBox="0 0 23 21" fill="none">
<path fill-rule="evenodd" clip-rule="evenodd" d="M21.1094 5.9891H20.1686V5.95874L15.2612 0.943017C14.9685 0.664284 14.5124 0.672508 14.2295 0.96162C13.9467 1.25073 13.9386 1.71688 14.2113 2.01601L18.0986 5.9891H5.32256L9.20985 2.01601C9.48256 1.71688 9.47452 1.25073 9.19165 0.96162C8.90878 0.672508 8.4527 0.664284 8.16003 0.943017L3.25264 5.95874V5.9891H2.31176C1.49129 5.9891 0.826172 6.66891 0.826172 7.50749V9.532C0.826172 10.3706 1.49129 11.0504 2.31176 11.0504C2.30342 11.143 2.30342 11.2362 2.31176 11.3287L3.79735 19.4268C3.92854 20.1458 4.54259 20.667 5.25818 20.6668H18.1333C18.8489 20.667 19.4629 20.1458 19.5941 19.4268L21.0797 11.3287C21.0881 11.2362 21.0881 11.143 21.0797 11.0504C21.9002 11.0504 22.5653 10.3706 22.5653 9.532V7.50749C22.5655 6.68062 21.9183 6.00564 21.1094 5.9891ZM18.1383 19.1484H5.26319L3.7776 11.0503H19.6239L18.1383 19.1484ZM21.1094 9.53198H2.29191V7.50747H21.1094V9.53198Z" fill="#ffffff"/>
</svg>